<svg id="b706b105-0bdf-4c96-8462-eb4f98f5ba7d" data-name="Calque 1" xmlns="http://www.w3.org/2000/svg" viewBox="0 0 438.41 437.11"><defs><style>.f7c81292-acd4-43d2-a47e-9680638f6321{fill:#444;}</style></defs><path class="f7c81292-acd4-43d2-a47e-9680638f6321" d="M219.21,39.5c58.53,0,65.46.22,88.58,1.27,21.37,1,33,4.55,40.7,7.55a68,68,0,0,1,25.2,16.4,67.84,67.84,0,0,1,16.4,25.2c3,7.73,6.57,19.34,7.55,40.71,1.05,23.11,1.28,30.05,1.28,88.58s-.23,65.46-1.28,88.58c-1,21.37-4.55,33-7.55,40.7a72.64,72.64,0,0,1-41.6,41.6c-7.73,3-19.33,6.57-40.7,7.55-23.12,1.05-30.05,1.28-88.58,1.28s-65.47-.23-88.58-1.28c-21.37-1-33-4.55-40.71-7.55a67.84,67.84,0,0,1-25.2-16.4,68,68,0,0,1-16.4-25.2c-3-7.73-6.57-19.33-7.55-40.7-1.05-23.12-1.27-30.05-1.27-88.58s.22-65.47,1.27-88.58c1-21.37,4.55-33,7.55-40.71a68,68,0,0,1,16.4-25.2,68,68,0,0,1,25.2-16.4c7.73-3,19.34-6.57,40.71-7.55,23.11-1.05,30.05-1.27,88.58-1.27m0-39.5c-59.54,0-67,.25-90.38,1.32S89.56,6.09,75.62,11.51A107.5,107.5,0,0,0,36.79,36.79,107.5,107.5,0,0,0,11.51,75.62C6.09,89.56,2.38,105.5,1.32,128.83S0,159.67,0,219.21s.25,67,1.32,90.38,4.77,39.26,10.19,53.21a107.46,107.46,0,0,0,25.28,38.82,107.53,107.53,0,0,0,38.83,25.29c13.94,5.42,29.88,9.12,53.21,10.19s30.84,1.31,90.38,1.31,67-.25,90.38-1.31,39.26-4.77,53.21-10.19a112.18,112.18,0,0,0,64.11-64.11c5.42-13.95,9.12-29.88,10.19-53.21s1.31-30.85,1.31-90.38-.25-67-1.31-90.38-4.77-39.27-10.19-53.21a107.53,107.53,0,0,0-25.29-38.83A107.46,107.46,0,0,0,362.8,11.51c-13.95-5.42-29.88-9.13-53.21-10.19S278.74,0,219.21,0Z"/><path class="f7c81292-acd4-43d2-a47e-9680638f6321" d="M219.21,106.64A112.57,112.57,0,1,0,331.77,219.21,112.57,112.57,0,0,0,219.21,106.64Zm0,185.64a73.07,73.07,0,1,1,73.07-73.07A73.07,73.07,0,0,1,219.21,292.28Z"/><circle class="f7c81292-acd4-43d2-a47e-9680638f6321" cx="336.22" cy="102.19" r="26.3"/></svg>